<svg width="109" height="83" viewBox="0 0 109 83" fill="none" xmlns="http://www.w3.org/2000/svg">
    <path d="M49.713 53.13c2.232-1.33 3.863-2.216 4.893-3.153a17.415 17.415 0 00-25.16 15.017c.072-.021 15.482-9.036 20.267-11.864zm-9.599 28.512A17.42 17.42 0 0064.275 65.59v-.518c-9.264 7.731-24.14 16.56-24.162 16.57z"
          fill="#EB5757" stroke="#EB5757" stroke-width="1.5" stroke-miterlimit="10"/>
    <path d="M76.277 22.818L107.71.236a.134.134 0 00.06-.075.133.133 0 00-.009-.096.119.119 0 00-.15-.057l-86.3 17.554 2.269 4.531m44.723 3.771L33.061 38.649l-7.664-13.79"
          stroke="#222325" stroke-width="1.5" stroke-miterlimit="10"/>
    <path d="M18.697 23.372L107.01.324l-72.35 26.58-15.963-3.532z" stroke="#222325" stroke-width="1.5"
          stroke-linejoin="bevel"/>
    <path d="M26.22 41.387l-21.09 7.98m17.9-14.023l-10.49 3.309m7.637-9.01L.226 35.913" stroke="#EB5757"
          stroke-width="1.5" stroke-miterlimit="10"/>
    <path d="M84.848 16.65c1.237.4.725 3.02-2.755 5.526a371.705 371.705 0 00-6.126 4.505m-.052 1.766c2.718-.622 6.4-1.455 9.543-1.932 1.29-.191 2.59-.383 3.107.166 1.196 1.196.844 3.107-3.842 4.427-2.833.798-9.057 2.015-9.057 2.015m.026.684c1.725.17 7.882 1.77 8.286 3.935.404 2.165-2.491 2.071-4.086 1.595a21.048 21.048 0 00-4.609-.684"
          stroke="#222325" stroke-width="1.5" stroke-miterlimit="10"/>
    <path d="M55.14 30.648c-2.749 6.695-.18 11.428.617 15.13.797 3.703-1.253 4.505-6.043 7.353S29.442 65 29.442 65v.575a17.42 17.42 0 0010.682 16.053s24.99-14.825 30.35-22.924c5.359-8.099 5.55-32.478 5.582-36.926 0-2.356.098-5.66-.948-6.628a2.071 2.071 0 00-2.926.145l-.067.078c-3.081 3.283-4.66 18.548-7.343 19.16-2.956.678-.44-5.697 3.547-8.68"
          stroke="#222325" stroke-width="1.5" stroke-miterlimit="10"/>
    <path d="M46.275 55.162L56.632 70.79 40.124 81.664s-5.66-2.59-7.944-6.69c-2.283-4.101-2.729-9.953-2.729-9.953l16.824-9.859z"
          fill="#222325"/>
</svg>